# AST/ASF file generated using VICON BodyLanguage
# -----------------------------------------------
:version 1.10
:name VICON
:units
  mass 1.0
  length 0.45
  angle deg
:documentation
   .ast/.asf automatically generated from VICON data using
   VICON BodyBuilder and BodyLanguage model FoxedUp or BRILLIANT.MOD
:root
   order TX TY TZ RX RY RZ
   axis XYZ
   position 0 0 0  
   orientation 0 0 0 
:bonedata
  begin
     id 1 
     name lhipjoint
     direction 0.624716 -0.669793 0.401383 
     length 2.38238 
     axis 0 0 0  XYZ
  end
  begin
     id 2 
     name lfemur
     direction 0.34202 -0.939693 0  
     length 6.4574  
     axis 0 0 20  XYZ
    dof rx ry rz
    limits (-160.0 20.0)
           (-70.0 70.0)
           (-60.0 70.0)
  end
  begin
     id 3 
     name ltibia
     direction 0.34202 -0.939693 0   
     length 7.68739   
     axis 0 0 20   XYZ
    dof rx
    limits (-10.0 170.0)
  end
  begin
     id 4 
     name lfoot
     direction 0.0681309 -0.187188 0.979959   
     length 2.46615   
     axis -90 7.62852e-016 20   XYZ
    dof rx rz
    limits (-45.0 90.0)
           (-70.0 20.0)
  end
  begin
     id 5 
     name ltoes
     direction 1.53566e-011 -4.21819e-011 1   
     length 1.2376   
     axis -90 7.62852e-016 20   XYZ
    dof rx
    limits (-90.0 20.0)
  end
  begin
     id 6 
     name rhipjoint
     direction -0.644473 -0.655875 0.393043   
     length 2.43293  
     axis 0 0 0  XYZ 
  end
  begin
     id 7 
     name rfemur
     direction -0.34202 -0.939693 0   
     length 6.7025   
     axis 0 0 -20   XYZ
    dof rx ry rz
    limits (-160.0 20.0)
           (-70.0 70.0)
           (-70.0 60.0)
  end
  begin
     id 8 
     name rtibia
     direction -0.34202 -0.939693 0   
     length 7.80547   
     axis 0 0 -20   XYZ
    dof rx
    limits (-10.0 170.0)
 end
 begin
     id 9 
     name rfoot
     direction -0.0756734 -0.207911 0.975216   
     length 2.40315  
     axis -90 -7.62852e-016 -20   XYZ
    dof rx rz
    limits (-45.0 90.0)
           (-20.0 70.0)
  end
  begin
     id 10 
     name rtoes
     direction -1.5353e-011 -4.21879e-011 1   
     length 1.20477   
     axis -90 -7.62852e-016 -20   XYZ
    dof rx
    limits (-90.0 20.0)
  end
  begin
     id 11 
     name lowerback
     direction 0.0160353 0.987463 -0.157037   
     length 2.18572   
     axis 0 0 0   XYZ
    dof rx ry rz
    limits (-20.0 45.0)
           (-30.0 30.0)
           (-30.0 30.0)
  end
  begin
     id 12 
     name upperback
     direction -0.00499661 0.999756 0.0215076   
     length 2.18016   
     axis 0 0 0   XYZ
    dof rx ry rz
    limits (-20.0 45.0)
           (-30.0 30.0)
           (-30.0 30.0)
  end
  begin
     id 13 
     name thorax
     direction -0.00921346 0.995333 0.0960619   
     length 2.24923   
     axis 0 0 0   XYZ
    dof rx ry rz
    limits (-20.0 45.0)
           (-30.0 30.0)
           (-30.0 30.0)
  end
  begin
     id 14 
     name lowerneck
     direction 0.0274184 0.991181 0.12965   
     length 1.70911   
     axis 0 0 0   XYZ
    dof rx ry rz
    limits (-20.0 45.0)
           (-30.0 30.0)
           (-30.0 30.0)
  end
  begin
     id 15 
     name upperneck
     direction 0.0015627 0.999959 -0.00893559   
     length 1.69312   
     axis 0 0 0   XYZ
    dof rx ry rz
    limits (-20.0 45.0)
           (-30.0 30.0)
           (-30.0 30.0)
  end
  begin
     id 16
     name head
     direction -0.00230242 0.999856 -0.0168327  
     length 1.80241  
     axis 0 0 0   XYZ
    dof rx ry rz
    limits (-20.0 45.0)
           (-30.0 30.0)
           (-30.0 30.0)
  end
  begin
     id 17 
     name lclavicle
     direction 0.955523 0.290741 -0.0494489  
     length 3.84275  
     axis 0 0 0   XYZ
    dof ry rz
    limits (-20.0 10.0)
           (0.0 20.0)
  end
  begin
     id 18 
     name lhumerus
     direction 1 -4.48967e-011 -3.18382e-028   
     length 5.17714   
     axis 180 -30 -90   XYZ
    dof rx ry rz
    limits (-60.0 90.0)
           (-90.0 90.0)
           (-90.0 90.0)
  end
  begin
     id 19
     name lradius
     direction 1 -4.48968e-011 -2.22911e-027   
     length 3.43679   
     axis 180 -30 -90   XYZ
    dof rx
    limits (-10.0 170.0)
  end
  begin
     id 20
     name lwrist
     direction 1 -4.48951e-011 -6.32245e-027   
     length 1.7184   
     axis 3.57107e-015 90 90   XYZ
    dof ry
    limits (-180.0 0.0)
 end
  begin
     id 21 
     name lhand
     direction 1 -4.48924e-011 -1.26431e-026   
     length 0.573117   
     axis 8.06912e-015 90 90   XYZ
    dof rx rz
    limits (-90.0 90.0)
           (-45.0 45.0)
  end
  begin
     id 22 
     name lfingers
     direction 1 -4.49001e-011 -2.52965e-026   
     length 0.462062   
     axis 1.61381e-014 90 90   XYZ
    dof rx
    limits (0.0 90.0)
  end
  begin
     id 23
     name lthumb
     direction 0.707107 -6.35008e-011 0.707107   
     length 0.663431   
     axis -90 45 -1.62303e-014   XYZ
    dof rx rz
    limits (-45.0 45.0)
           (-45.0 45.0)
  end
  begin
     id 24 
     name rclavicle
     direction -0.963917 0.256881 -0.0698287   
     length 3.73057  
     axis 0 0 0   XYZ 
    dof ry rz
    limits (-10.0 20.0)
           (-20.0 0.0)
  end
  begin
     id 25 
     name rhumerus
     direction -1 -4.48962e-011 -2.73982e-027  
     length 5.23908   
     axis 180 30 90   XYZ
    dof rx ry rz
    limits (-90.0 60.0)
           (-90.0 90.0)
           (-90.0 90.0)
  end
  begin
     id 26 
     name rradius
     direction -1 -4.48968e-011 -4.33218e-027   
     length 3.46485   
     axis 180 30 90   XYZ
    dof rx
    limits (-10.0 170.0)
  end
  begin
     id 27 
     name rwrist
     direction -1 -4.48989e-011 -6.32372e-027   
     length 1.73243   
     axis 3.57107e-015 -90 -90   XYZ
    dof ry
    limits (-180.0 0.0)
  end
  begin
     id 28
     name rhand
     direction -1 -4.48948e-011 -1.26448e-026   
     length 0.608752   
     axis 8.06912e-015 -90 -90   XYZ
    dof rx rz
    limits (-90.0 90.0)
           (-45.0 45.0)
  end
  begin
     id 29
     name rfingers
     direction -1 -4.48962e-011 -2.52913e-026   
     length 0.490792   
     axis 1.61381e-014 -90 -90   XYZ
    dof rx
    limits (0.0 90.0)
  end
  begin
     id 30
     name rthumb
     direction -0.707107 -6.34878e-011 0.707107   
     length 0.704682   
     axis -90 -45 1.62303e-014   XYZ
    dof rx rz
    limits (-45.0 45.0)
           (-45.0 45.0)
  end
:hierarchy
  begin
    root lhipjoint rhipjoint lowerback
    lhipjoint lfemur
    lfemur ltibia
    ltibia lfoot
    lfoot ltoes
    rhipjoint rfemur
    rfemur rtibia
    rtibia rfoot
    rfoot rtoes
    lowerback upperback
    upperback thorax
    thorax lowerneck lclavicle rclavicle
    lowerneck upperneck
    upperneck head
    lclavicle lhumerus
    lhumerus lradius
    lradius lwrist
    lwrist lhand lthumb
    lhand lfingers
    rclavicle rhumerus
    rhumerus rradius
    rradius rwrist
    rwrist rhand rthumb
    rhand rfingers
  end

#!OML:ASF G:\JayActor3\Patient Classification 1\Patient 1\Session 6\male.ASF
:FULLY-SPECIFIED
:DEGREES
351
root 52.2961 14.088 -28.2995 12.4421 -54.6896 -6.23881
lowerback 24.6382 -0.453713 1.43671
upperback 5.96651 -0.446857 0.60138
thorax -7.11342 -0.344616 -0.0180128
lowerneck -3.39298 -0.684719 4.80595
upperneck 3.27718 -1.20647 1.04793
head 1.56997 -0.525487 -0.511063
rclavicle -2.127e-014 6.75868e-015
rhumerus -38.6958 5.80879 -91.3039
rradius 125.854
rwrist 19.7741
rhand 11.367 -20.5096
rfingers 7.12502
rthumb 36.4218 -46.7214
lclavicle -2.127e-014 6.75868e-015
lhumerus -37.7961 -7.923 89.1791
lradius 124.93
lwrist -1.41911
lhand 2.96914 39.9581
lfingers 7.12502
lthumb 28.4311 67.8183
rfemur -46.6706 -14.9965 23.4539
rtibia 69.3147
rfoot -26.9383 -10.5109
rtoes -11.8813
lfemur -47.2256 21.8467 -21.9346
ltibia 67.8906
lfoot -28.0675 8.73758
ltoes -3.47313
352
root 52.2905 14.0863 -28.2911 12.4206 -54.6406 -6.25491
lowerback 24.7051 -0.449193 1.3464
upperback 5.95903 -0.468696 0.52038
thorax -7.15616 -0.354134 -0.0476279
lowerneck -3.43704 -0.699056 4.80429
upperneck 3.3182 -1.23368 1.14569
head 1.59076 -0.536255 -0.481364
rclavicle 4.37326e-014 -1.43125e-014
rhumerus -38.6981 5.88574 -91.3864
rradius 125.828
rwrist 19.7809
rhand 11.5556 -20.4414
rfingers 7.12502
rthumb 36.6003 -46.6081
lclavicle 4.37326e-014 -1.43125e-014
lhumerus -37.7645 -8.06919 89.1619
lradius 125.015
lwrist -1.41621
lhand 2.94175 39.9486
lfingers 7.12502
lthumb 28.4049 67.8132
rfemur -46.5892 -15.051 23.438
rtibia 69.3357
rfoot -26.9802 -10.5031
rtoes -11.9455
lfemur -47.1043 21.5468 -21.8568
ltibia 67.8893
lfoot -28.1623 9.00652
ltoes -3.50932
353
root 52.2861 14.0839 -28.2815 12.4195 -54.598 -6.28744
lowerback 24.7558 -0.438434 1.25428
upperback 5.96224 -0.482839 0.453004
thorax -7.17865 -0.359986 -0.0638403
lowerneck -3.49771 -0.710745 4.79322
upperneck 3.34599 -1.25665 1.2242
head 1.61031 -0.545516 -0.456075
rclavicle -8.01102e-014 -2.06736e-014
rhumerus -38.6756 5.96971 -91.4408
rradius 125.777
rwrist 19.7822
rhand 11.8124 -20.3589
rfingers 7.12502
rthumb 36.8433 -46.4637
lclavicle -8.01102e-014 -2.06736e-014
lhumerus -37.724 -8.20643 89.1594
lradius 125.098
lwrist -1.40307
lhand 2.88795 39.9325
lfingers 7.12502
lthumb 28.3535 67.8056
rfemur -46.5234 -15.1088 23.428
rtibia 69.3614
rfoot -27.0165 -10.4913
rtoes -12.0196
lfemur -46.9964 21.2243 -21.7741
ltibia 67.8985
lfoot -28.2638 9.27386
ltoes -3.49214
354
root 52.2825 14.0807 -28.2708 12.4346 -54.562 -6.33486
lowerback 24.787 -0.421055 1.15622
upperback 5.97913 -0.489929 0.398668
thorax -7.17584 -0.362467 -0.0647771
lowerneck -3.57161 -0.724096 4.77142
upperneck 3.36791 -1.28142 1.29244
head 1.63033 -0.555994 -0.432315
rclavicle -6.55989e-015 -1.35174e-014
rhumerus -38.6266 6.06036 -91.4685
rradius 125.705
rwrist 19.7601
rhand 12.0948 -20.2834
rfingers 7.12502
rthumb 37.1104 -46.3193
lclavicle -6.55989e-015 -1.35174e-014
lhumerus -37.6732 -8.33102 89.1704
lradius 125.179
lwrist -1.38281
lhand 2.83359 39.9103
lfingers 7.12502
lthumb 28.3015 67.792
rfemur -46.4681 -15.1678 23.4222
rtibia 69.3912
rfoot -27.0483 -10.4707
rtoes -12.0965
lfemur -46.898 20.8828 -21.6856
ltibia 67.9179
lfoot -28.3705 9.54127
ltoes -3.43944
355
root 52.279 14.0775 -28.2596 12.4624 -54.5258 -6.39639
lowerback 24.8191 -0.403251 1.06566
upperback 5.99455 -0.494724 0.343114
thorax -7.17517 -0.363963 -0.0720199
lowerneck -3.64562 -0.738899 4.75217
upperneck 3.39042 -1.30825 1.35952
head 1.65056 -0.567451 -0.409413
rclavicle -3.598e-014 -4.09496e-014
rhumerus -38.5757 6.13928 -91.4968
rradius 125.61
rwrist 19.7033
rhand 12.3947 -20.2169
rfingers 7.12502
rthumb 37.394 -46.1785
lclavicle -3.598e-014 -4.09496e-014
lhumerus -37.6174 -8.45388 89.1759
lradius 125.239
lwrist -1.34865
lhand 2.78284 39.8769
lfingers 7.12502
lthumb 28.253 67.7667
rfemur -46.4132 -15.2264 23.423
rtibia 69.4215
rfoot -27.0749 -10.4552
rtoes -12.2142
lfemur -46.8012 20.5303 -21.5863
ltibia 67.9437
lfoot -28.4822 9.79653
ltoes -3.3572
356
root 52.2755 14.0742 -28.2481 12.5 -54.4867 -6.47152
lowerback 24.8382 -0.37973 0.95321
upperback 6.01953 -0.496547 0.307222
thorax -7.157 -0.36381 -0.0462525
lowerneck -3.71915 -0.748572 4.72676
upperneck 3.40101 -1.32648 1.40444
head 1.66698 -0.575337 -0.392143
rclavicle -1.19271e-014 4.37326e-015
rhumerus -38.4959 6.23476 -91.4863
rradius 125.491
rwrist 19.5898
rhand 12.6932 -20.1781
rfingers 7.12502
rthumb 37.6761 -46.0647
lclavicle -1.19271e-014 4.37326e-015
lhumerus -37.5403 -8.55455 89.206
lradius 125.274
lwrist -1.31708
lhand 2.7373 39.8479
lfingers 7.12502
lthumb 28.2095 67.7448
rfemur -46.3552 -15.2846 23.4301
rtibia 69.4506
rfoot -27.1026 -10.4416
rtoes -12.3346
lfemur -46.7053 20.1684 -21.4776
ltibia 67.9754
lfoot -28.5932 10.0565
ltoes -3.29462
357
root 52.2716 14.0709 -28.2365 12.5458 -54.4443 -6.55924
lowerback 24.8714 -0.360029 0.842478
upperback 6.03816 -0.502594 0.270443
thorax -7.15301 -0.365706 -0.0209889
lowerneck -3.79273 -0.759013 4.69332
upperneck 3.42858 -1.34623 1.4591
head 1.68898 -0.583494 -0.370608
rclavicle 5.42682e-014 -5.32743e-014
rhumerus -38.4321 6.32982 -91.4845
rradius 125.366
rwrist 19.444
rhand 12.9808 -20.1595
rfingers 7.12502
rthumb 37.9477 -45.973
lclavicle 5.42682e-014 -5.32743e-014
lhumerus -37.4477 -8.63854 89.2302
lradius 125.271
lwrist -1.28472
lhand 2.71255 39.8219
lfingers 7.12502
lthumb 28.1858 67.7228
rfemur -46.2905 -15.3377 23.4444
rtibia 69.477
rfoot -27.1284 -10.4512
rtoes -12.5194
lfemur -46.6081 19.8089 -21.3594
ltibia 68.0115
lfoot -28.7044 10.3145
ltoes -3.25611
358
root 52.2673 14.0678 -28.2251 12.5952 -54.394 -6.65495
lowerback 24.9156 -0.340598 0.734811
upperback 6.05802 -0.508213 0.235217
thorax -7.15321 -0.367518 0.00418797
lowerneck -3.88557 -0.772379 4.64562
upperneck 3.47089 -1.37102 1.52285
head 1.71924 -0.593681 -0.344186
rclavicle 5.96354e-015 -3.26007e-014
rhumerus -38.366 6.41949 -91.4783
rradius 125.236
rwrist 19.2659
rhand 13.2362 -20.1839
rfingers 7.12502
rthumb 38.1889 -45.9315
lclavicle 5.96354e-015 -3.26007e-014
lhumerus -37.3597 -8.72187 89.247
lradius 125.269
lwrist -1.24459
lhand 2.69305 39.8232
lfingers 7.12502
lthumb 28.1672 67.7272
rfemur -46.2185 -15.3898 23.4641
rtibia 69.5012
rfoot -27.1422 -10.4594
rtoes -12.7131
lfemur -46.5103 19.4527 -21.2355
ltibia 68.0517
lfoot -28.813 10.5749
ltoes -3.25488
359
root 52.2628 14.0648 -28.2137 12.6509 -54.3354 -6.75783
lowerback 24.9741 -0.322821 0.638009
upperback 6.06779 -0.513614 0.190784
thorax -7.17188 -0.369273 0.0131683
lowerneck -3.96876 -0.781925 4.61806
upperneck 3.51262 -1.39116 1.58257
head 1.74768 -0.601435 -0.322229
rclavicle -7.95139e-015 1.78906e-014
rhumerus -38.3258 6.48543 -91.489
rradius 125.107
rwrist 19.0835
rhand 13.4864 -20.2279
rfingers 7.12502
rthumb 38.425 -45.9102
lclavicle -7.95139e-015 1.78906e-014
lhumerus -37.2777 -8.8189 89.2432
lradius 125.252
lwrist -1.20359
lhand 2.69524 39.8485
lfingers 7.12502
lthumb 28.1693 67.7521
rfemur -46.1437 -15.4409 23.4899
rtibia 69.5235
rfoot -27.1476 -10.4758
rtoes -12.9226
lfemur -46.4166 19.1018 -21.1094
ltibia 68.094
lfoot -28.921 10.832
ltoes -3.2652
360
root 52.2589 14.0616 -28.202 12.7175 -54.274 -6.86604
lowerback 25.0315 -0.309577 0.537269
upperback 6.06961 -0.525587 0.146009
thorax -7.19876 -0.373958 0.0260561
lowerneck -4.02456 -0.78821 4.59045
upperneck 3.55631 -1.40578 1.64867
head 1.77205 -0.60641 -0.297899
rclavicle -6.48038e-014 -2.10712e-014
rhumerus -38.3024 6.56391 -91.511
rradius 124.975
rwrist 18.9076
rhand 13.712 -20.2899
rfingers 7.12502
rthumb 38.6379 -45.9127
lclavicle -6.48038e-014 -2.10712e-014
lhumerus -37.2113 -8.8985 89.2248
lradius 125.235
lwrist -1.16455
lhand 2.69896 39.9021
lfingers 7.12502
lthumb 28.1729 67.8051
rfemur -46.0795 -15.4913 23.518
rtibia 69.5463
rfoot -27.1434 -10.4752
rtoes -13.0915
lfemur -46.3379 18.7558 -20.9903
ltibia 68.1386
lfoot -29.0264 11.0927
ltoes -3.27474
361
root 52.255 14.0588 -28.1901 12.7869 -54.2085 -6.97764
lowerback 25.1032 -0.29977 0.443781
upperback 6.05915 -0.540856 0.0887212
thorax -7.24657 -0.380145 0.0222643
lowerneck -4.06224 -0.791958 4.582
upperneck 3.6111 -1.41799 1.72292
head 1.79686 -0.609633 -0.274088
rclavicle -1.31198e-014 -5.1684e-014
rhumerus -38.3079 6.62462 -91.5595
rradius 124.848
rwrist 18.75
rhand 13.9229 -20.3544
rfingers 7.12502
rthumb 38.8369 -45.921
lclavicle -1.31198e-014 -5.1684e-014
lhumerus -37.191 -8.98742 89.1715
lradius 125.243
lwrist -1.11593
lhand 2.70184 39.9703
lfingers 7.12502
lthumb 28.1756 67.8728
rfemur -46.0135 -15.54 23.5479
rtibia 69.568
rfoot -27.1315 -10.4697
rtoes -13.2293
lfemur -46.2604 18.4205 -20.8732
ltibia 68.1802
lfoot -29.129 11.3475
ltoes -3.28574
